<svg id="Capa_1" enable-background="new 0 0 512 512" height="512" viewBox="0 0 512 512" width="512" xmlns="http://www.w3.org/2000/svg"><g><path d="m466.88 210.88h-265.45c20.474 26.739 20.319 63.705 0 90.24h265.45c24.88 0 45.12-20.24 45.12-45.12s-20.24-45.12-45.12-45.12z"/><path d="m45.12 301.12h38.15c-20.436-26.688-20.355-63.657 0-90.24h-38.15c-24.88 0-45.12 20.24-45.12 45.12s20.24 45.12 45.12 45.12z"/><circle cx="142.35" cy="256" r="44.37"/><path d="m466.88 392.5h-151.811c20.665 26.986 20.151 64.004.01 90.25h151.801c24.88 0 45.12-20.24 45.12-45.12s-20.24-45.13-45.12-45.13z"/><path d="m45.12 392.5c-24.88 0-45.12 20.25-45.12 45.13s20.24 45.12 45.12 45.12h151.799c-20.183-26.301-20.61-63.322.01-90.25z"/><ellipse cx="256" cy="437.63" rx="44.37" ry="44.37" transform="matrix(.924 -.383 .383 .924 -147.987 131.28)"/><path d="m45.12 119.5h258.52c-20.75-27.096-20.073-64.103-.01-90.25h-258.51c-24.88 0-45.12 20.24-45.12 45.12s20.24 45.13 45.12 45.13z"/><path d="m466.88 119.5c24.88 0 45.12-20.25 45.12-45.13s-20.24-45.12-45.12-45.12h-45.09c20.085 26.173 20.716 63.185-.01 90.25z"/><ellipse cx="362.71" cy="74.37" rx="44.37" ry="44.37" transform="matrix(.707 -.707 .707 .707 53.648 278.257)"/></g></svg>